<svg width="448" height="448" viewBox="0 0 448 448" fill="none" xmlns="http://www.w3.org/2000/svg">
<rect x="38" y="45" width="372" height="359" fill="white"/>
<path d="M64 0C28.7 0 0 28.7 0 64V384C0 419.3 28.7 448 64 448H384C419.3 448 448 419.3 448 384V64C448 28.7 419.3 0 384 0H64ZM154.7 96.7C164.4 94.1 174.6 99 178.4 108.3L198.4 156.3C201.8 164.5 199.4 173.9 192.6 179.5L168 199.7C184.6 234.9 213.1 263.4 248.3 280L268.5 255.3C274.1 248.5 283.5 246.1 291.7 249.5L339.7 269.5C349 273.4 353.9 283.5 351.3 293.2L339.3 337.2C336.9 346 329 352 320 352C196.3 352 96 251.7 96 128C96 119 102 111.1 110.7 108.7L154.7 96.7Z" fill="#48BB78"/>
</svg>
